# xmcd CD database file
# Copyright (C) 1993-1998 Ti Kan
#
# Track frame offsets:
# 183
# 14385
# 30663
# 44020
# 56468
# 66490
# 84103
# 110640
# 125360
# 145318
# 170388
# 228913
# 238748
# 250165
# 268115
# 280798
# 295180
# 305523
#
# Disc length: 4300 seconds
#
# Revision: 0
# Processed by: cddbd v1.4b41PL1 Copyright (c) Steve Scherf et al.
# Submitted via: inCDius 1.1
#
DISCID=0310ca12
DTITLE=Various Artist - Le top du blues - Disc 1/2
DYEAR=1900
DGENRE=
TTITLE0=Reconsider baby (Lowell Fulson)
TTITLE1=Goin' to Chicago (Jimmy Rushing)
TTITLE2=Standing at the crossroads (Elmore James)
TTITLE3=Spoonful (Howlin' Wolf)
TTITLE4=First time I met the blues (Buddy Guy)
TTITLE5=That's what the blues is all about (Albert King)
TTITLE6=Drown in my own tears (Ray Charles)
TTITLE7=Get out of my life woman (The Paul Butterfield Blues Band)
TTITLE8=Stop (Mike Bloomfield - Al Kooper)
TTITLE9=Hoochie Koochie man (Jimi Hendrix Experience)
TTITLE10=Loan me a dime (Boz Scaggs)
TTITLE11=I'm your witchdoctor (John Mayall's Bluesbreakers)
TTITLE12=Jimi the fox (Barry Goldberg and Mike Bloomfield)
TTITLE13=Supersticious blues (Country Joe Macdonald)
TTITLE14=Seem to have the blues (Procol Harum)
TTITLE15=Traveling riverside blues (John Hammond)
TTITLE16=Sure 'nuff 'n yes I do (Captain Beefheart and his Magic Band)
TTITLE17=Muddy Waters (Patrick Verbeke)
EXTD=
EXTT0=
EXTT1=
EXTT2=
EXTT3=
EXTT4=
EXTT5=
EXTT6=
EXTT7=
EXTT8=
EXTT9=
EXTT10=
EXTT11=
EXTT12=
EXTT13=
EXTT14=
EXTT15=
EXTT16=
EXTT17=
PLAYORDER=
